<svg width="800" height="800" viewBox="0 0 800 800" fill="none" xmlns="http://www.w3.org/2000/svg">
<path d="M674.64 211.12H497.76C496.9 181.36 472.56 157.4 442.6 157.4H125.34C94.82 157.4 70 182.2 70 212.74V420.84C70 451.38 94.82 476.2 125.34 476.2H151.18L243.92 583.26C247.04 586.88 251.56 588.9 256.3 588.9C258.18 588.9 260.1 588.58 262.04 587.88C268.4 585.5 272.68 579.32 272.68 572.52V476.2H302.24C303.1 505.94 327.44 529.94 357.4 529.94H527.36V626.24C527.36 633.04 531.64 639.2 538.04 641.62C539.94 642.3 541.84 642.62 543.72 642.62C548.44 642.62 552.98 640.58 556.1 637L648.84 529.94H674.66C705.18 529.94 730.02 505.12 730.02 474.58V266.46C730 235.92 705.18 211.12 674.64 211.12ZM302.04 266.46V443.42H256.28C247.24 443.42 239.9 450.78 239.9 459.8V528.6L171.04 449.04C167.9 445.48 163.4 443.4 158.12 443.4H125.36C112.9 443.4 102.78 433.3 102.78 420.82V212.74C102.78 200.3 112.92 190.14 125.36 190.14H442.64C454.52 190.14 464 199.46 464.86 211.12H357.38C326.86 211.12 302.04 235.92 302.04 266.46ZM697.24 474.58C697.24 487.04 687.1 497.16 674.64 497.16H641.36C636.64 497.16 632.1 499.2 628.94 502.8L560.1 582.34V513.54C560.1 504.52 552.74 497.18 543.72 497.18H357.38C344.94 497.18 334.82 487.06 334.82 474.6V266.46C334.82 254 344.94 243.86 357.38 243.86H674.66C687.12 243.86 697.26 254 697.26 266.46L697.24 474.58Z" fill="white"/>
<path d="M656.82 294.06H375.22C366.18 294.06 358.84 301.4 358.84 310.42C358.84 319.44 366.18 326.8 375.22 326.8H656.82C665.86 326.8 673.22 319.44 673.22 310.42C673.22 301.4 665.86 294.06 656.82 294.06Z" fill="white"/>
<path d="M656.82 354.12H375.22C366.18 354.12 358.84 361.46 358.84 370.5C358.84 379.52 366.18 386.88 375.22 386.88H656.82C665.86 386.88 673.22 379.52 673.22 370.5C673.22 361.46 665.86 354.12 656.82 354.12Z" fill="white"/>
<path d="M508.52 414.2H375.22C366.18 414.2 358.84 421.54 358.84 430.56C358.84 439.58 366.18 446.94 375.22 446.94H508.52C517.54 446.94 524.88 439.58 524.88 430.56C524.88 421.54 517.54 414.2 508.52 414.2Z" fill="white"/>
</svg>
