<svg width="800" height="800" viewBox="0 0 800 800" fill="none" xmlns="http://www.w3.org/2000/svg">
<path d="M621.44 255.039C623.299 242.648 624.154 230.13 624 217.602C586.71 178.848 541.984 148.019 492.496 126.961C443.008 105.903 389.779 95.0467 336 95.0467C282.219 95.0467 228.993 105.903 179.506 126.961C130.019 148.019 85.2902 178.848 48 217.602C48 667.52 336 735.04 336 735.04C357.299 726.026 377.846 715.325 397.44 703.04" stroke="white" stroke-width="48" stroke-linecap="round" stroke-linejoin="round"/>
<path d="M752 447.04H432" stroke="white" stroke-width="48" stroke-linecap="round" stroke-linejoin="round"/>
<path d="M688 349.437H496C460.653 349.437 432 378.093 432 413.437V573.437C432 608.784 460.653 637.437 496 637.437H688C723.347 637.437 752 608.784 752 573.437V413.437C752 378.093 723.347 349.437 688 349.437Z" stroke="white" stroke-width="48" stroke-linecap="round" stroke-linejoin="round"/>
</svg>
