<svg width="800" height="800" viewBox="0 0 800 800" fill="none" xmlns="http://www.w3.org/2000/svg">
<g clip-path="url(#clip0_41_18)">
<path d="M731.042 545.45V545.447H68.9547V545.45H34.1078V592.969H68.9547H243.998L202.503 790.217L249.003 800L273.353 684.25H376.239V799.863H423.758V684.25H526.644L550.994 800L597.494 790.217L555.998 592.969H731.042H765.889V545.45H731.042ZM376.241 636.731H283.352L292.558 592.969H376.241V636.731ZM423.761 636.731V592.969H507.444L516.65 636.731H423.761Z" fill="white"/>
<path d="M68.9547 159.173V497.928H731.045V159.173H68.9547ZM273.68 342.955H218.638V209.75H273.68V342.955ZM376.241 342.955H321.198V209.75H376.241V342.955ZM581.362 447.353H423.759V390.473H581.362V447.353ZM581.362 342.955H423.759V209.75H581.362V342.955Z" fill="white"/>
<path d="M731.045 64.1344H423.759V0H376.241V64.1344H68.9547H34.1078V111.653H68.9547V111.656H731.045V111.653H765.892V64.1344H731.045Z" fill="white"/>
</g>
<defs>
<clipPath id="clip0_41_18">
<rect width="800" height="800" fill="white"/>
</clipPath>
</defs>
</svg>
