<svg width="800" height="800" viewBox="0 0 800 800" fill="none" xmlns="http://www.w3.org/2000/svg">
<g clip-path="url(#clip0_41_2)">
<path d="M173.733 720H173.586C166.239 720 160.333 725.973 160.333 733.333C160.333 740.692 166.359 746.666 173.733 746.666C181.092 746.666 187.066 740.692 187.066 733.333C187.066 725.973 181.094 720 173.733 720Z" fill="white"/>
<path d="M386.667 746.667H413.334C420.708 746.667 426.667 740.694 426.667 733.334C426.667 725.975 420.708 720.001 413.334 720.001H386.667C379.294 720.001 373.334 725.975 373.334 733.334C373.334 740.694 379.294 746.667 386.667 746.667Z" fill="white"/>
<path d="M573.333 586.667H386.667C379.294 586.667 373.334 592.641 373.334 600C373.334 607.359 379.294 613.333 386.667 613.333H573.334C580.708 613.333 586.667 607.359 586.667 600C586.667 592.641 580.706 586.667 573.333 586.667Z" fill="white"/>
<path d="M306.667 346.667H40C17.9469 346.667 0 364.614 0 386.667V760C0 782.053 17.9469 800 40 800H306.667C328.72 800 346.667 782.053 346.667 760V386.667C346.667 364.614 328.72 346.667 306.667 346.667ZM320 760C320 767.347 314.027 773.333 306.667 773.333H40C32.6406 773.333 26.6672 767.347 26.6672 760V386.667C26.6672 379.32 32.6406 373.334 40 373.334H306.667C314.027 373.334 320 379.32 320 386.667V760Z" fill="white"/>
<path d="M520 720H480V653.333C480 645.973 474.041 640 466.667 640C459.294 640 453.334 645.973 453.334 653.333V733.333C453.334 740.692 459.294 746.666 466.667 746.666H520C545.08 746.666 554.467 761.48 557.959 773.333H386.667C379.294 773.333 373.334 779.306 373.334 786.666C373.334 794.025 379.294 799.998 386.667 799.998H573.334C580.708 799.998 586.667 794.025 586.667 786.666C586.667 763.614 572.733 720 520 720Z" fill="white"/>
<path d="M400 560C414.706 560 426.667 548.041 426.667 533.333C426.667 518.627 414.708 506.666 400 506.666C385.306 506.666 373.333 518.625 373.333 533.333C373.333 548.041 385.306 560 400 560Z" fill="white"/>
<path d="M760 453.333H653.333C631.28 453.333 613.333 471.28 613.333 493.333V760C613.333 782.053 631.28 800 653.333 800H760C782.053 800 800 782.053 800 760V493.333C800 471.28 782.053 453.333 760 453.333ZM773.333 760C773.333 767.347 767.359 773.333 760 773.333H653.333C645.973 773.333 640 767.347 640 760V493.333C640 485.986 645.973 480 653.333 480H760C767.359 480 773.333 485.986 773.333 493.333V760Z" fill="white"/>
<path d="M733.333 0H66.6672C29.9062 0 0 29.9062 0 66.6672V306.667C0 314.027 5.95938 320 13.3328 320C20.7062 320 26.6656 314.027 26.6656 306.667V66.6672C26.6656 44.6141 44.6125 26.6672 66.6656 26.6672H733.333C755.386 26.6672 773.333 44.6141 773.333 66.6672V413.334C773.333 420.694 779.292 426.667 786.666 426.667C794.039 426.667 799.998 420.694 799.998 413.334V66.6672C800 29.9062 770.094 0 733.333 0Z" fill="white"/>
<path d="M707.067 720H706.92C699.573 720 693.667 725.973 693.667 733.333C693.667 740.692 699.694 746.666 707.067 746.666C714.427 746.666 720.4 740.692 720.4 733.333C720.4 725.973 714.427 720 707.067 720Z" fill="white"/>
<path d="M573.333 453.333H386.667C379.294 453.333 373.334 459.306 373.334 466.666C373.334 474.025 379.294 479.998 386.667 479.998H573.334C580.708 479.998 586.667 474.025 586.667 466.666C586.667 459.306 580.706 453.333 573.333 453.333Z" fill="white"/>
<path d="M706.667 133.333C710.081 133.333 713.494 132.027 716.094 129.427C721.308 124.212 721.308 115.786 716.094 110.573L689.427 83.9062C684.212 78.6922 675.786 78.6922 670.573 83.9062C665.361 89.1203 665.361 97.5469 670.573 102.759L697.241 129.427C699.841 132.027 703.253 133.333 706.667 133.333Z" fill="white"/>
<path d="M706.667 213.333C710.081 213.333 713.494 212.027 716.094 209.427C721.308 204.213 721.308 195.786 716.094 190.573L609.427 83.9062C604.214 78.6922 595.786 78.6922 590.573 83.9062C585.361 89.1203 585.361 97.5469 590.573 102.759L697.241 209.427C699.841 212.027 703.253 213.333 706.667 213.333Z" fill="white"/>
</g>
<defs>
<clipPath id="clip0_41_2">
<rect width="800" height="800" fill="white"/>
</clipPath>
</defs>
</svg>
