<svg width="800" height="800" viewBox="0 0 800 800" fill="none" xmlns="http://www.w3.org/2000/svg">
<g clip-path="url(#clip0_41_34)">
<path d="M17.05 235.775L388.225 437.9C391.95 439.925 396.05 440.95 400.2 440.95C404.275 440.95 408.35 439.95 412.05 437.95L787.125 235.825C795.3 231.425 800.375 222.825 800.25 213.525C800.125 204.225 794.85 195.75 786.575 191.525L415.375 3.02501C408.3 -0.549987 399.95 -0.574987 392.825 2.97501L17.775 191.475C9.47499 195.65 4.14999 204.1 3.99999 213.4C3.84999 222.7 8.92499 231.325 17.05 235.775ZM404.025 53.35L721.325 214.5L400.25 387.525L82.925 214.725L404.025 53.35ZM782.3 375.25L708.1 337.575L654.55 366.45L717.05 398.2L396 571.225L78.65 398.425L145.3 364.925L91.9 335.825L13.525 375.2C5.22499 379.375 -0.100014 387.825 -0.250014 397.125C-0.400014 406.425 4.64999 415.05 12.775 419.5L383.95 621.625C387.675 623.65 391.775 624.675 395.925 624.675C400 624.675 404.075 623.675 407.775 621.675L782.85 419.55C791.025 415.15 796.1 406.55 795.975 397.25C795.85 387.95 790.575 379.475 782.3 375.25ZM782.3 550.25L712.025 515.7L658.475 544.575L717.075 573.2L396 746.225L78.65 573.425L140.6 545.4L87.2 516.3L13.525 550.225C5.22499 554.4 -0.100014 562.85 -0.250014 572.15C-0.400014 581.45 4.64999 590.075 12.775 594.525L383.95 796.65C387.675 798.675 391.775 799.7 395.925 799.7C400 799.7 404.075 798.7 407.8 796.7L782.875 594.575C791.05 590.175 796.125 581.575 796 572.275C795.875 562.95 790.625 554.475 782.35 550.275L782.3 550.25Z" fill="white"/>
</g>
<defs>
<clipPath id="clip0_41_34">
<rect width="800" height="800" fill="white"/>
</clipPath>
</defs>
</svg>
