<svg width="800" height="800" viewBox="0 0 800 800" fill="none" xmlns="http://www.w3.org/2000/svg">
<g clip-path="url(#clip0_41_36)">
<path d="M522.731 718.899C522.5 717.757 522.16 716.633 521.714 715.563C521.268 714.474 520.715 713.439 520.071 712.477C519.429 711.496 518.679 710.586 517.859 709.764C517.039 708.944 516.128 708.194 515.146 707.552C514.182 706.91 513.148 706.357 512.06 705.91C510.99 705.464 509.865 705.107 508.725 704.893C502.926 703.714 496.77 705.624 492.631 709.763C491.811 710.583 491.061 711.494 490.401 712.475C489.759 713.439 489.206 714.474 488.759 715.561C488.314 716.632 487.975 717.755 487.742 718.897C487.511 720.039 487.403 721.216 487.403 722.377C487.403 723.538 487.511 724.714 487.742 725.857C487.973 726.999 488.312 728.122 488.759 729.192C489.204 730.282 489.757 731.316 490.401 732.278C491.061 733.26 491.811 734.169 492.631 734.991C495.95 738.31 500.534 740.219 505.245 740.219C506.404 740.219 507.582 740.094 508.725 739.863C509.867 739.649 510.99 739.292 512.06 738.846C513.15 738.4 514.184 737.847 515.146 737.203C516.128 736.561 517.037 735.811 517.859 734.991C518.679 734.171 519.429 733.26 520.071 732.278C520.714 731.314 521.267 730.28 521.714 729.192C522.159 728.122 522.498 726.997 522.731 725.857C522.964 724.716 523.087 723.538 523.087 722.377C523.089 721.219 522.964 720.041 522.731 718.899Z" fill="white"/>
<path d="M752.892 532.887H685.613V97.6246C685.613 87.77 677.625 79.7825 667.771 79.7825H529.746H469.487V17.8421C469.489 7.98747 461.5 0 451.647 0H348.352C338.497 0 330.51 7.98747 330.51 17.8421V79.7825H270.252H132.229C122.375 79.7825 114.387 87.77 114.387 97.6246V532.889H47.1076C37.253 532.889 29.2655 540.876 29.2655 550.731V641.162C29.2655 651.016 37.253 659.004 47.1076 659.004H143.926L68.9404 772.309C65.3154 777.788 64.9935 784.814 68.1029 790.6C71.2122 796.388 77.2497 799.997 83.82 799.997H187.115C193.101 799.997 198.688 796.994 201.993 792.002L236.26 740.222H452.97C462.825 740.222 470.812 732.235 470.812 722.38C470.812 712.525 462.825 704.538 452.97 704.538H259.874L290.008 659.002H509.992L598.007 792.003C601.312 796.995 606.899 799.998 612.885 799.998H716.18C722.749 799.998 728.786 796.389 731.897 790.602C735.006 784.816 734.686 777.788 731.06 772.311L656.074 659.002H752.892C762.747 659.002 770.734 651.015 770.734 641.16V550.729C770.734 540.876 762.745 532.887 752.892 532.887ZM366.194 35.6827H433.805V79.7825H366.194V35.6827ZM288.094 115.465H348.353H451.648H511.907V164.704H288.096V115.465H288.094ZM150.071 115.465H252.413V182.546C252.413 192.401 260.401 200.388 270.255 200.388H529.748C539.603 200.388 547.59 192.401 547.59 182.546V115.465H649.932V532.887H150.071V115.465ZM177.527 764.314H117.023L186.715 659.002H247.219L177.527 764.314ZM682.979 764.314H622.473L552.781 659.002H613.285L682.979 764.314ZM735.05 623.318H64.9497V568.571H132.229H667.771H735.05V623.318Z" fill="white"/>
<path d="M549.488 327.436C547.49 321.286 542.321 316.699 535.979 315.447L455.548 299.55L415.578 227.968C412.425 222.323 406.466 218.824 400 218.824C393.534 218.824 387.575 222.321 384.422 227.968L344.452 299.549L264.021 315.446C257.679 316.7 252.51 321.285 250.512 327.435C248.513 333.585 249.999 340.333 254.394 345.075L310.121 405.211L300.383 486.615C299.614 493.034 302.382 499.367 307.611 503.168C312.844 506.97 319.722 507.643 325.588 504.928L400 470.511L474.412 504.928C476.801 506.032 479.356 506.576 481.9 506.576C485.606 506.576 489.287 505.421 492.389 503.168C497.62 499.368 500.386 493.034 499.617 486.615L489.879 405.211L545.606 345.075C550.001 340.333 551.485 333.586 549.488 327.436ZM458.098 387.009C454.54 390.848 452.847 396.056 453.47 401.255L460.392 459.129L407.489 434.662C405.112 433.564 402.556 433.014 399.998 433.014C397.441 433.014 394.884 433.564 392.508 434.662L339.605 459.129L346.527 401.255C347.149 396.058 345.456 390.847 341.899 387.009L302.28 344.256L359.461 332.955C364.595 331.939 369.027 328.721 371.58 324.15L399.998 273.263L428.416 324.15C430.969 328.721 435.398 331.939 440.534 332.955L497.715 344.256L458.098 387.009Z" fill="white"/>
</g>
<defs>
<clipPath id="clip0_41_36">
<rect width="800" height="800" fill="white"/>
</clipPath>
</defs>
</svg>
